<mxfile host="www.draw.io" modified="2019-10-21T16:25:19.935Z" agent="Mozilla/5.0 (Macintosh; Intel Mac OS X 10_14_4) AppleWebKit/537.36 (KHTML, like Gecko) Chrome/77.0.3865.120 Safari/537.36" etag="cNgH0sPrE8CAQ64Qvib1" version="12.1.3" type="github" pages="2">
  <diagram id="3228e29e-7158-1315-38df-8450db1d8a1d" name="Branded">
    <mxGraphModel dx="1186" dy="773" grid="1" gridSize="10" guides="1" tooltips="1" connect="1" arrows="1" fold="1" page="1" pageScale="1" pageWidth="1169" pageHeight="827" background="#ffffff" math="0" shadow="0">
      <root>
        <mxCell id="0"/>
        <mxCell id="1" parent="0"/>
        <mxCell id="21640" value="&lt;div style=&quot;text-align: center; font-size: 20px;&quot;&gt;number&lt;/div&gt;" style="ellipse;whiteSpace=wrap;html=1;aspect=fixed;rounded=1;shadow=0;glass=0;labelBackgroundColor=none;strokeColor=#b85450;strokeWidth=1;fillColor=#f8cecc;fontFamily=Helvetica;fontSize=20;align=center;verticalAlign=top;spacingBottom=15;spacing=15;" parent="1" vertex="1">
          <mxGeometry x="320" y="360" width="309" height="309" as="geometry"/>
        </mxCell>
        <mxCell id="21639" value="Kg" style="ellipse;whiteSpace=wrap;html=1;aspect=fixed;rounded=1;shadow=0;glass=0;labelBackgroundColor=none;strokeColor=#82b366;strokeWidth=1;fillColor=#d5e8d4;fontFamily=Helvetica;fontSize=20;align=center;spacing=15;verticalAlign=middle;" parent="1" vertex="1">
          <mxGeometry x="389" y="470" width="171" height="171" as="geometry"/>
        </mxCell>
      </root>
    </mxGraphModel>
  </diagram>
  <diagram name="Opaque" id="T3_IQFuzgbs9sLuIr2vo">
    <mxGraphModel dx="1186" dy="773" grid="1" gridSize="10" guides="1" tooltips="1" connect="1" arrows="1" fold="1" page="1" pageScale="1" pageWidth="1169" pageHeight="827" background="#ffffff" math="0" shadow="0">
      <root>
        <mxCell id="4K6KI8YeAeaCd9hIoTJp-0"/>
        <mxCell id="4K6KI8YeAeaCd9hIoTJp-1" parent="4K6KI8YeAeaCd9hIoTJp-0"/>
        <mxCell id="4K6KI8YeAeaCd9hIoTJp-2" value="&lt;div style=&quot;text-align: center; font-size: 20px;&quot;&gt;number&lt;/div&gt;" style="ellipse;whiteSpace=wrap;html=1;aspect=fixed;rounded=1;shadow=0;glass=0;labelBackgroundColor=none;strokeColor=#b85450;strokeWidth=1;fillColor=#f8cecc;fontFamily=Helvetica;fontSize=20;align=center;verticalAlign=middle;spacingBottom=15;spacing=15;" vertex="1" parent="4K6KI8YeAeaCd9hIoTJp-1">
          <mxGeometry x="210" y="360" width="200" height="200" as="geometry"/>
        </mxCell>
        <mxCell id="4K6KI8YeAeaCd9hIoTJp-3" value="Kg" style="ellipse;whiteSpace=wrap;html=1;aspect=fixed;rounded=1;shadow=0;glass=0;labelBackgroundColor=none;strokeColor=#82b366;strokeWidth=1;fillColor=#d5e8d4;fontFamily=Helvetica;fontSize=20;align=center;spacing=15;verticalAlign=middle;" vertex="1" parent="4K6KI8YeAeaCd9hIoTJp-1">
          <mxGeometry x="460" y="360" width="200" height="200" as="geometry"/>
        </mxCell>
        <mxCell id="4K6KI8YeAeaCd9hIoTJp-4" value="Lbs" style="ellipse;whiteSpace=wrap;html=1;aspect=fixed;rounded=1;shadow=0;glass=0;labelBackgroundColor=none;strokeColor=#6c8ebf;strokeWidth=1;fillColor=#dae8fc;fontFamily=Helvetica;fontSize=20;align=center;spacing=15;verticalAlign=middle;" vertex="1" parent="4K6KI8YeAeaCd9hIoTJp-1">
          <mxGeometry x="330" y="570" width="200" height="200" as="geometry"/>
        </mxCell>
      </root>
    </mxGraphModel>
  </diagram>
</mxfile>
